# xmcd CD database file
#
# Track frame offsets:
#	150
#	14544
#	36516
#	54235
#	69739
#	85153
#	105647
#	120893
#	141355
#	158494
#
# Disc length: 2320 seconds
#
# Revision: 2
# Processed by: cddbd v1.5.2PL0 Copyright (c) Steve Scherf et al.
# Submitted via: CDex 1.51
#
DISCID=7d090e0a
DTITLE=Jamie Smith - Jamie Smith
DYEAR=1900
DGENRE=Country
TTITLE0=Clare Toast
TTITLE1=Ma's Taxi
TTITLE2=The Luck Penny
TTITLE3=The Silver Spear
TTITLE4=Palma Perfecto
TTITLE5=Coilsfield House
TTITLE6=Bogbeat
TTITLE7=Christina's
TTITLE8=Who's on the List
TTITLE9=The Scotia
EXTD=
EXTT0=
EXTT1=
EXTT2=
EXTT3=
EXTT4=
EXTT5=
EXTT6=
EXTT7=
EXTT8=
EXTT9=
PLAYORDER=
